<?xml version="1.0" encoding="UTF-8"?>
<!-- Generator: visioncortex VTracer 0.6.12 -->
<svg version="1.1" xmlns="http://www.w3.org/2000/svg" width="1254" height="1254" viewBox="0 0 1254 1254" role="img" aria-labelledby="oat-title oat-description">
<title id="oat-title">Open Agent Treasury mascot</title>
<desc id="oat-description">A blue pirate robot with a silver eye, black eyepatch and golden oat sprig holds a purple treasure chest containing Bitcoin, a green dollar coin, a purple crystal and a blue compute chip.</desc>
<path d="M0 0 C7.37 7.07 12.34 15.02 17 24 C17.47 24.89 17.95 25.79 18.43 26.71 C24.91 39.85 30.56 58.29 29 73 C28.75 73.26 28.75 73.26 27.51 74.59 C25.14 78.37 25.52 82.16 25.49 86.55 C25.47 87.53 25.45 88.51 25.43 89.52 C25.38 92.78 25.34 96.05 25.31 99.31 C25.28 101.6 25.25 103.89 25.22 106.18 C25.14 112.44 25.09 118.69 25.04 124.95 C25 129.13 24.95 133.32 24.9 137.5 C24.82 144.68 24.76 151.86 24.72 159.04 C24.7 161.84 24.67 164.64 24.64 167.43 C24.59 171.38 24.58 175.32 24.57 179.27 C24.57 179.85 24.57 179.85 24.52 182.82 C24.54 189.55 24.93 195.93 30 201 C29.94 209.8 28.16 218.49 26.39 227.07 C26.03 228.84 25.71 230.61 25.38 232.38 C22.76 245.56 16.54 256.98 9 268 C5.97 267.55 3.83 266.91 1.11 265.46 C-2.44 263.8 -4.86 263.7 -8.75 263.69 C-14.94 263.37 -18.41 262.05 -23.47 258.62 C-33.89 251.95 -47.72 249.08 -60.03 248.88 C-68.36 248.74 -72.64 247.61 -79.04 242.27 C-82.58 239.55 -86.25 237.64 -90.25 235.69 C-90.91 235.36 -91.57 235.04 -92.26 234.7 C-98.92 231.48 -105.47 228.67 -112.69 226.94 C-113.38 226.77 -114.08 226.6 -114.8 226.42 C-129.46 222.92 -144.04 221.77 -159.08 221.65 C-160.62 221.63 -162.16 221.61 -163.7 221.57 C-165.95 221.51 -168.21 221.49 -170.46 221.48 C-170.8 221.47 -170.8 221.47 -172.53 221.41 C-176.34 221.42 -177.85 221.87 -180.8 224.36 C-181.52 225.23 -182.25 226.1 -183 227 C-184.67 228.67 -186.33 230.33 -188 232 C-187.23 231.93 -186.46 231.86 -185.66 231.79 C-149.73 228.75 -108.35 230.39 -79.11 254.37 C-76.68 256.53 -74.32 258.73 -72 261 C-71.23 261.64 -70.47 262.29 -69.68 262.95 C-68 265 -68 265 -68.05 267.35 C-68.28 268.24 -68.51 269.14 -68.75 270.06 C-70.98 280.93 -71.77 293.6 -67.66 304.09 C-67 306 -67 306 -67 310 C-71.05 310.76 -74.88 311.13 -79 311.13 C-79.6 311.14 -79.6 311.14 -82.6 311.15 C-83.89 311.15 -85.19 311.15 -86.52 311.15 C-87.92 311.15 -89.31 311.15 -90.71 311.16 C-94.54 311.17 -98.37 311.17 -102.21 311.17 C-106.34 311.18 -110.48 311.19 -114.61 311.2 C-124.6 311.22 -134.58 311.23 -144.57 311.24 C-149.27 311.24 -153.98 311.25 -158.69 311.25 C-174.34 311.27 -190 311.28 -205.66 311.29 C-209.72 311.29 -213.78 311.29 -217.84 311.3 C-218.34 311.3 -218.34 311.3 -220.9 311.3 C-237.23 311.3 -253.57 311.33 -269.9 311.36 C-286.69 311.4 -303.48 311.41 -320.27 311.42 C-329.69 311.42 -339.11 311.43 -348.53 311.45 C-356.55 311.48 -364.57 311.48 -372.6 311.47 C-376.69 311.47 -380.78 311.47 -384.87 311.49 C-416.41 311.63 -416.41 311.63 -429 307 C-429.55 306.8 -429.55 306.8 -432.31 305.79 C-457.26 296.22 -475.84 279.49 -486.75 255.06 C-493.65 238.87 -498.93 218.77 -497 201 C-495.12 198.12 -495.12 198.12 -493 196 C-491.17 192.98 -490.75 190.73 -490.73 187.22 C-490.73 186.75 -490.73 186.75 -490.71 184.32 C-490.71 183.28 -490.71 182.24 -490.71 181.16 C-490.7 180.06 -490.7 178.95 -490.69 177.81 C-490.67 174.16 -490.67 170.5 -490.66 166.85 C-490.66 164.31 -490.65 161.77 -490.64 159.23 C-490.63 153.91 -490.63 148.59 -490.63 143.27 C-490.63 137.12 -490.61 130.97 -490.58 124.82 C-490.55 118.91 -490.54 112.99 -490.54 107.07 C-490.54 104.55 -490.53 102.03 -490.52 99.52 C-490.5 96 -490.5 92.49 -490.51 88.97 C-490.5 87.93 -490.49 86.89 -490.48 85.81 C-490.53 80.16 -490.82 77.17 -495 73 C-498.72 53.35 -489.36 29.37 -478.51 13.46 C-460.98 -11.24 -436.3 -20.22 -407.51 -25.16 C-380.55 -29.48 -353.25 -31.62 -326 -33 C-325.12 -33.04 -324.23 -33.09 -323.32 -33.14 C-94.52 -44.61 -94.52 -44.61 0 0 Z " fill="#56A2E0" transform="translate(860,366)"/>
<path d="M0 0 C0.96 -0 1.92 -0.01 2.91 -0.01 C4.95 -0.02 6.98 -0.02 9.01 -0.02 C12.09 -0.02 15.16 -0.04 18.23 -0.06 C28.43 -0.09 38.09 0.21 48.12 2.17 C50.1 2.45 52.08 2.72 54.06 2.98 C59.87 3.95 65.15 5.82 70.64 7.9 C73.83 9.06 76.98 9.94 80.25 10.79 C99.47 16.61 117.29 29.83 131.56 43.66 C132.64 44.7 133.72 45.73 134.81 46.76 C144.06 55.5 151.78 64.79 159.12 75.17 C160.1 76.53 161.07 77.89 162.05 79.26 C166.24 85.16 170.39 91.1 174.5 97.05 C203.8 139.4 237.78 176.77 288.12 193.17 C289.37 193.58 290.62 193.99 291.91 194.41 C302.37 197.74 312.69 199.5 323.56 200.79 C354.46 204.55 354.46 204.55 365.69 218.22 C370.85 225.21 371.83 232.7 371.12 241.17 C368.95 254.5 362.91 265.09 354.12 275.17 C353.46 275.95 352.8 276.74 352.12 277.54 C347.8 282.56 343.25 286.99 338.12 291.17 C337.67 291.55 337.67 291.55 335.36 293.47 C320.07 305.79 299.31 318.84 279.12 319.17 C278.95 318.52 278.78 317.88 278.6 317.21 C271.91 294.78 258.84 275.39 238.06 263.98 C229.76 259.65 221.11 256.72 212.12 254.17 C211.38 253.95 210.64 253.73 209.87 253.51 C182.77 245.8 152.51 243.48 124.42 243.29 C122.12 243.17 122.12 243.17 119.55 242.69 C115.39 242.06 111.29 241.81 107.09 241.61 C106.18 241.57 105.28 241.53 104.34 241.49 C92.13 240.98 79.91 241.02 67.69 241.03 C64.18 241.04 60.66 241.03 57.15 241.03 C51.23 241.03 45.31 241.03 39.4 241.04 C33.42 241.04 27.44 241.04 21.46 241.04 C-11.66 241.01 -44.77 241.03 -77.88 242.17 C-79.07 242.21 -80.27 242.25 -81.5 242.29 C-87.3 242.49 -93.09 242.72 -98.89 242.99 C-101.54 243.11 -104.18 243.22 -106.83 243.33 C-116.1 243.74 -125.21 244.46 -134.41 245.71 C-138.13 246.2 -141.84 246.55 -145.58 246.85 C-174.79 249.24 -206.04 254.62 -228.88 274.17 C-229.69 274.79 -230.51 275.41 -231.36 276.05 C-244.31 286.95 -251.71 304.16 -255.88 320.17 C-285.43 314.81 -316.51 295.86 -333.99 271.18 C-343.11 257.09 -348.35 244.03 -345.88 227.17 C-344.78 223.27 -343.32 220.38 -340.88 217.17 C-340.41 216.54 -339.95 215.91 -339.48 215.27 C-329.87 204.13 -316.67 202.38 -302.95 200.89 C-285.67 198.96 -269.68 194.33 -253.88 187.17 C-253.19 186.87 -252.51 186.56 -251.81 186.25 C-235.02 178.7 -218.56 168.51 -204.88 156.17 C-204.03 155.42 -203.19 154.67 -202.32 153.9 C-200.63 152.4 -198.96 150.88 -197.29 149.36 C-194.95 147.24 -192.57 145.17 -190.19 143.11 C-186.03 139.4 -182.44 135.43 -178.88 131.17 C-178.06 130.23 -177.25 129.3 -176.42 128.34 C-167.85 118.44 -160.13 107.97 -152.39 97.42 C-134 72.35 -134 72.35 -123.91 61.39 C-122.06 59.37 -120.28 57.31 -118.5 55.23 C-103.83 38.51 -86.18 24.45 -65.88 15.17 C-65.14 14.82 -64.41 14.48 -63.65 14.12 C-48.55 7.19 -33.47 3.75 -17.1 1.51 C-14.88 1.17 -14.88 1.17 -12.71 0.64 C-8.48 -0.06 -4.28 0.01 0 0 Z " fill="#010101" transform="translate(614.875,79.83203125)"/>
<path d="M0 0 C35.31 0 70.62 0 107 0 C107.33 16.17 107.66 32.34 108 49 C111.53 56.07 113.34 59.63 120.19 63.11 C123.82 64.26 127.28 64.32 131.05 64.34 C131.82 64.34 132.59 64.35 133.38 64.36 C135.01 64.37 136.64 64.37 138.26 64.37 C140.73 64.37 143.19 64.41 145.66 64.45 C155.5 64.52 162.94 64.07 170.88 57.69 C183.12 42.2 176.64 18.02 177 1 C212.31 1 247.62 1 284 1 C284.33 4.63 284.66 8.26 285 12 C287.79 15.8 290.47 17.79 295 19 C298.33 19.44 301.65 19.73 305 20 C305 26.27 305 32.54 305 39 C304.15 39.04 304.15 39.04 299.88 39.25 C293.98 39.79 290.4 41.35 286.37 45.8 C283.73 50.04 284.47 55.14 284.5 60 C284.5 61.13 284.51 62.26 284.51 63.42 C284.7 72.96 286.02 80.1 292.17 87.67 C294 90 294 90 294 92 C294.26 92.12 294.26 92.12 295.56 92.75 C298.77 94.4 301.88 96.2 305 98 C305.32 102.67 305.43 105.14 303.31 109.38 C300.34 112.75 297.85 113.82 293.38 114.25 C292.44 114.25 291.5 114.26 290.52 114.26 C289.98 114.26 289.98 114.26 287.21 114.28 C286.01 114.27 284.81 114.27 283.58 114.27 C282.94 114.27 282.94 114.27 279.72 114.28 C276.18 114.29 272.64 114.29 269.1 114.29 C265.28 114.29 261.47 114.3 257.65 114.31 C250.18 114.33 242.7 114.33 235.22 114.33 C229.15 114.34 223.07 114.34 217 114.35 C199.79 114.36 182.57 114.37 165.35 114.37 C164.89 114.37 164.89 114.37 162.54 114.37 C161.61 114.37 160.68 114.37 159.73 114.37 C144.66 114.37 129.59 114.39 114.51 114.42 C99.05 114.45 83.58 114.46 68.11 114.46 C59.42 114.46 50.74 114.46 42.05 114.48 C34.66 114.5 27.26 114.51 19.87 114.49 C16.1 114.49 12.32 114.49 8.55 114.5 C4.46 114.52 0.38 114.51 -3.71 114.49 C-4.31 114.5 -4.31 114.5 -7.34 114.53 C-8.43 114.52 -9.52 114.51 -10.65 114.5 C-11.59 114.5 -12.54 114.5 -13.51 114.5 C-16.75 113.85 -17.92 112.52 -20 110 C-22.18 105.98 -22.18 102.52 -22 98 C-20.82 97.48 -19.65 96.97 -18.44 96.44 C-10 92.16 -5.51 85.65 -2 77 C-0.39 71.68 -0.69 66.14 -0.62 60.62 C-0.59 59.5 -0.55 58.38 -0.51 57.22 C-0.41 47.95 -0.41 47.95 -3.35 44.29 C-8.85 39.54 -13.64 39.82 -21 39 C-21 32.73 -21 26.46 -21 20 C-19.26 19.8 -19.26 19.8 -10.55 18.83 C-6.66 17.92 -4.8 16.81 -2 14 C-1 11 -1 11 0 0 Z " fill="#A991C7" transform="translate(485,939)"/>
<path d="M0 0 C227.62 -0.83 227.62 -0.83 276.33 37.23 C282.58 43.75 286.88 51.05 291 59 C291.24 59.45 291.24 59.45 292.43 61.71 C298.91 74.85 304.56 93.29 303 108 C302.01 109.32 301.02 110.64 300 112 C299.67 123.88 299.34 135.76 299 148 C271.94 148 244.88 148 217 148 C216.17 146.02 216.17 146.02 212 136 C203.59 121.68 190.77 112.72 175 108 C162.08 104.73 147.11 106.74 135.19 112.29 C132.55 113.14 131.58 112.95 129 112 C127.19 110.45 127.19 110.45 125.36 108.46 C124.68 107.74 124 107.01 123.3 106.26 C122.6 105.49 121.91 104.73 121.19 103.94 C120.5 103.2 119.81 102.46 119.11 101.7 C115.21 97.48 111.4 93.2 107.64 88.86 C105.18 86.07 102.66 83.35 100.12 80.62 C96.55 76.77 93 72.91 89.5 69 C85.57 64.61 81.58 60.28 77.58 55.96 C74.21 52.31 70.85 48.66 67.5 45 C63.7 40.85 59.88 36.7 56.06 32.56 C55.57 32.02 55.07 31.49 54.56 30.93 C52.01 28.18 49.47 25.43 46.93 22.68 C46.42 22.13 45.92 21.58 45.4 21.02 C44.38 19.92 43.36 18.84 42.32 17.76 C39.86 15.18 37.9 12.83 36.01 9.77 C33.7 6.29 31.85 3.67 28 2 C18.79 0.37 9.31 0.68 0 1 C0 0.67 0 0.34 0 0 Z " fill="#56A2E1" transform="translate(586,331)"/>
<path d="M0 0 C2.5 -0.01 5.01 -0.01 7.51 -0.02 C13.58 -0.04 19.65 -0.04 25.72 -0.03 C30.66 -0.03 35.6 -0.03 40.53 -0.04 C41.24 -0.04 41.95 -0.04 42.67 -0.04 C44.1 -0.04 45.54 -0.04 46.97 -0.04 C60.38 -0.06 73.79 -0.05 87.2 -0.04 C99.44 -0.03 111.69 -0.04 123.93 -0.07 C136.53 -0.09 149.14 -0.1 161.74 -0.09 C168.8 -0.09 175.86 -0.09 182.93 -0.11 C189.57 -0.13 196.21 -0.12 202.85 -0.1 C205.29 -0.1 207.72 -0.1 210.15 -0.11 C233.73 -0.21 233.73 -0.21 244.34 4.4 C245.41 4.86 246.48 5.31 247.59 5.78 C262.05 12.21 271.5 23.7 277.98 37.8 C282.01 48.48 282.84 58.36 282.97 69.65 C283.02 72.66 283.07 75.66 283.13 78.67 C283.15 79.42 283.16 80.17 283.17 80.94 C283.26 85.39 283.5 89.8 283.85 94.24 C284.64 105.12 284.57 116.02 284.58 126.91 C284.59 130.73 284.63 134.54 284.66 138.35 C284.66 140.8 284.67 143.25 284.67 145.7 C284.68 146.83 284.7 147.96 284.71 149.12 C284.69 155.86 284.18 162.19 281.34 168.4 C280.68 168.73 280.02 169.06 279.34 169.4 C279.26 169.11 279.26 169.11 278.86 167.61 C278.63 166.82 278.4 166.03 278.16 165.22 C277.94 164.44 277.72 163.66 277.49 162.86 C276.34 160.4 276.34 160.4 273.82 158.04 C270.77 154.8 270.47 152.84 269.84 148.47 C269.62 147.04 269.38 145.61 269.15 144.18 C269.09 143.8 269.09 143.8 268.77 141.86 C267.99 137.38 266.98 132.96 265.97 128.53 C265.86 128.06 265.86 128.06 265.32 125.68 C263.81 119.14 262.08 112.69 260.22 106.24 C258.52 100.24 257.13 94.19 255.78 88.09 C249.51 60.16 249.51 60.16 237.84 52.03 C229.26 46.76 221.82 45.25 211.86 45.27 C211.38 45.27 211.38 45.27 208.95 45.26 C205.74 45.26 202.52 45.26 199.3 45.26 C196.99 45.26 194.69 45.25 192.38 45.25 C186.11 45.24 179.85 45.24 173.58 45.24 C168.35 45.24 163.12 45.23 157.89 45.23 C146.27 45.22 134.64 45.22 123.01 45.22 C122.31 45.22 121.61 45.22 120.89 45.22 C120.2 45.22 119.5 45.22 118.78 45.22 C107.46 45.22 96.13 45.21 84.81 45.2 C73.18 45.18 61.56 45.17 49.93 45.18 C43.4 45.18 36.87 45.17 30.35 45.16 C24.21 45.15 18.07 45.15 11.94 45.16 C9.68 45.16 7.43 45.16 5.18 45.15 C2.1 45.14 -0.97 45.15 -4.05 45.16 C-4.49 45.15 -4.49 45.15 -6.75 45.14 C-11.46 45.17 -15.23 45.6 -19.66 47.4 C-20.41 47.68 -21.16 47.95 -21.93 48.23 C-31.29 52.07 -37.98 58.44 -42.66 67.4 C-44.62 72.82 -46.11 78.34 -47.59 83.9 C-48.02 85.47 -48.46 87.04 -48.89 88.61 C-49.76 91.75 -50.61 94.88 -51.46 98.02 C-52.5 101.86 -53.58 105.69 -54.68 109.52 C-57.63 119.84 -60.39 130.16 -62.8 140.62 C-65.13 150.62 -67.89 160.51 -70.66 170.4 C-73.35 167.91 -75.15 165.95 -76.34 162.47 C-76.57 161.82 -76.8 161.17 -77.04 160.5 C-78.62 155.12 -78.82 150.08 -78.82 144.51 C-78.83 143.63 -78.83 142.75 -78.84 141.84 C-78.85 138.95 -78.85 136.05 -78.84 133.15 C-78.84 132.16 -78.84 131.17 -78.84 130.14 C-78.83 109.19 -78.01 88.31 -76.66 67.4 C-76.58 66.21 -76.51 65.02 -76.43 63.79 C-75.13 44.18 -70.51 28.25 -55.66 14.4 C-52.13 11.78 -48.49 9.54 -44.66 7.4 C-43.98 7 -43.3 6.6 -42.6 6.19 C-29.35 -1.12 -14.65 -0.03 0 0 Z " fill="#5AA4E0" transform="translate(523.656005859375,689.595947265625)"/>
<path d="M0 0 C0.97 -0.01 1.94 -0.02 2.93 -0.02 C6.16 -0.04 9.39 -0.03 12.62 -0.01 C14.94 -0.02 17.27 -0.03 19.59 -0.04 C25.88 -0.06 32.18 -0.05 38.47 -0.04 C44.4 -0.03 50.32 -0.03 56.25 -0.04 C68.7 -0.06 81.14 -0.04 93.59 -0.01 C104.26 0.01 114.93 0.01 125.6 -0.02 C138.01 -0.04 150.41 -0.05 162.82 -0.04 C169.38 -0.03 175.94 -0.03 182.5 -0.05 C188.67 -0.06 194.84 -0.05 201.01 -0.02 C203.27 -0.02 205.54 -0.02 207.8 -0.03 C210.89 -0.04 213.98 -0.02 217.08 0 C217.52 -0.01 217.52 -0.01 219.77 -0.03 C227.01 0.08 232.57 2.44 237.95 7.31 C244.46 14.04 245.78 23.96 247.91 32.76 C249.97 41.13 252.09 49.48 254.29 57.82 C255.23 61.43 256.17 65.03 257.1 68.63 C257.19 68.99 257.19 68.99 257.65 70.77 C259.3 77.2 260.49 82.99 260.1 89.63 C253 89.06 246.6 87.52 239.79 85.51 C230.4 82.82 221 80.2 211.54 77.76 C210.36 77.45 209.18 77.15 207.96 76.83 C201.46 75.22 195.53 74.31 188.85 74.38 C182.81 74.22 182.81 74.22 179.72 71.67 C177.55 68.78 175.84 65.81 174.1 62.63 C172.96 60.87 171.79 59.14 170.6 57.41 C169.33 55.54 168.08 53.66 166.83 51.77 C166.61 51.44 166.61 51.44 165.5 49.76 C164.52 48.27 163.53 46.77 162.55 45.27 C160.95 42.83 159.34 40.39 157.73 37.95 C157.23 37.18 156.73 36.41 156.21 35.62 C151.43 28.39 151.43 28.39 148.1 25.63 C145.16 25.07 145.16 25.07 142.1 25.63 C137.83 29.37 134.73 33.74 131.54 38.38 C130.47 39.92 129.41 41.45 128.34 42.98 C128.07 43.37 128.07 43.37 126.71 45.33 C125.2 47.5 123.68 49.65 122.14 51.79 C116.43 59.8 110.87 67.89 105.41 76.07 C104.8 76.99 104.19 77.91 103.56 78.86 C99.24 85.37 99.24 85.37 98.1 87.63 C95.07 88.04 92.09 88.34 89.04 88.57 C80.96 89.27 73.13 90.42 65.19 92.05 C62.1 92.63 62.1 92.63 59.1 92.63 C57.99 91.17 57.99 91.17 56.79 89.13 C50.15 79.82 36.17 74.32 25.3 72.05 C5.59 69.5 -11.75 73.57 -27.59 85.7 C-32.23 89.67 -35.94 93.75 -37.9 99.63 C-41.36 98.39 -44.05 96.96 -46.9 94.63 C-46.34 89.23 -45.35 84.26 -43.71 79.07 C-41.6 72.16 -39.7 65.2 -37.9 58.2 C-35.52 49.01 -33.14 39.82 -30.5 30.71 C-30.1 29.32 -29.7 27.93 -29.31 26.54 C-26.14 15.36 -22.25 7.91 -12.21 1.73 C-8.21 -0.16 -4.36 -0.05 0 0 Z " fill="#A892C7" transform="translate(518.8989105224609,747.3650817871094)"/>
<path d="M0 0 C1 0.26 1.99 0.51 3.02 0.77 C20.41 5.84 34.29 17 43.3 32.67 C50.2 46.23 51.56 61.07 46.95 75.6 C42.55 87.87 35.62 96.73 24 103 C23.11 103.34 22.22 103.68 21.3 104.03 C19 105 19 105 18 107 C18.09 108.94 18.25 110.88 18.44 112.81 C18.92 119.23 19.24 125.63 19.38 132.06 C19.41 132.97 19.45 133.87 19.49 134.8 C19.55 139.19 19.42 141.37 16.92 145.09 C13.31 147.45 11.17 147.61 6.88 147.5 C5.66 147.49 4.44 147.48 3.18 147.47 C0 147 0 147 -1.89 145.85 C-3.48 143.2 -3.48 140.94 -3.62 137.88 C-3.92 132.08 -3.92 132.08 -5 131 C-8.44 130.75 -8.44 130.75 -12 131 C-14.47 134.71 -14.36 137.27 -14.56 141.62 C-15 144 -15 144 -16.09 145.79 C-19.03 147.66 -21.62 147.4 -25.06 147.38 C-26.31 147.38 -27.56 147.39 -28.85 147.4 C-29.89 147.27 -30.93 147.14 -32 147 C-34.59 143.11 -34.41 140.07 -34.66 135.5 C-35 133 -35 133 -37 131 C-40.63 130.88 -40.63 130.88 -44 131 C-45.51 134.02 -45.28 137.15 -45.43 140.49 C-46.2 143.86 -47.18 145.01 -50 147 C-53.57 147.57 -53.57 147.57 -57.56 147.56 C-58.23 147.59 -58.91 147.61 -59.6 147.63 C-61.57 147.63 -61.57 147.63 -65 147 C-68.52 142.84 -68.4 138.61 -68.29 133.42 C-68.29 132.6 -68.28 131.79 -68.28 130.95 C-68.26 128.36 -68.23 125.78 -68.19 123.19 C-68.17 121.43 -68.16 119.67 -68.15 117.91 C-68.11 113.61 -68.06 109.3 -68 105 C-68.75 104.61 -69.5 104.22 -70.27 103.82 C-71.26 103.29 -72.25 102.77 -73.26 102.23 C-74.24 101.72 -75.22 101.2 -76.22 100.67 C-84.72 95.55 -90.73 85.36 -93.38 75.94 C-95.22 65.5 -95.1 53.14 -92 43 C-91.77 42.21 -91.53 41.42 -91.29 40.6 C-85.41 23.56 -70.68 11.74 -55 4 C-37.1 -3.74 -18.82 -5.08 0 0 Z " fill="#FAFAFA" transform="translate(647,136)"/>
<path d="M0 0 C22.12 -2.68 22.12 -2.68 29.66 1.46 C34.3 5.27 37.85 9.93 41.35 14.77 C43.74 18 46.47 20.85 49.25 23.75 C50.22 24.79 51.18 25.84 52.14 26.89 C55.09 30.1 58.04 33.3 61 36.5 C62 37.58 63 38.66 64 39.75 C66.01 41.93 68.02 44.11 70.04 46.29 C76.25 53.01 82.45 59.75 88.63 66.51 C90.03 68.03 91.42 69.55 92.82 71.07 C97.8 76.5 102.76 81.95 107.68 87.43 C110.76 90.84 113.85 94.22 116.97 97.58 C119.15 99.94 121.26 102.32 123.3 104.8 C123.64 105.21 123.64 105.21 125.38 107.31 C125.67 107.68 125.67 107.68 127.15 109.55 C129 111 129 111 131.39 110.86 C134.07 109.98 136.69 109.03 139.31 108 C143.9 106.32 148.11 105.2 153 105 C154.19 104.94 155.37 104.87 156.59 104.81 C174.14 104.16 188.98 110.27 202 122 C209.01 128.74 214.41 137.43 216 147 C243.06 147 270.12 147 298 147 C298 152.28 298 157.56 298 163 C271.6 163 245.2 163 218 163 C218 166.3 218 169.6 218 173 C215.87 187.9 206.85 200.53 195.54 210.12 C181.09 220.84 165.93 223.25 148.48 221.79 C136.61 219.8 126.18 212.41 118 204 C117.68 203.69 117.68 203.69 116.08 202.14 C104.56 190.21 101.61 175.52 101.63 159.54 C101.87 148.78 104.76 140.08 110.73 131.12 C112.04 128.94 112.72 127.52 113 125 C111.84 123.15 111.84 123.15 110.05 121.27 C109.4 120.58 108.75 119.88 108.08 119.16 C107.4 118.45 106.71 117.74 106 117 C104.71 115.62 103.42 114.23 102.13 112.85 C100.8 111.44 99.46 110.03 98.12 108.62 C93.06 103.27 88.04 97.88 83.13 92.38 C80.65 89.61 78.14 86.86 75.62 84.12 C75.39 83.87 75.39 83.87 74.22 82.6 C73.28 81.57 72.34 80.55 71.4 79.53 C69.57 77.54 67.75 75.54 65.92 73.55 C56.51 63.27 47.04 53.03 37.5 42.87 C32.9 37.98 28.35 33.04 23.82 28.07 C21.11 25.11 18.36 22.17 15.6 19.23 C0 2.57 0 2.57 0 0 Z " fill="#010203" transform="translate(587,332)"/>
<path d="M0 0 C18.48 1.19 38.18 13.14 52 25 C52.52 25.44 53.04 25.89 53.57 26.35 C75.17 45 92.75 69.67 100.25 97.43 C101 100 101 100 101.96 101.86 C111.55 121.71 109.85 152.55 103 173 C97.31 188.24 88.96 200.92 77 212 C74.52 209.52 74.31 207.82 73.44 204.44 C67.54 184.71 55.19 166.96 36.85 157.04 C26.58 151.79 16.43 149.65 5 149 C1.15 141.19 1.54 133.22 1.52 124.71 C1.51 123.09 1.49 121.46 1.48 119.84 C1.43 115.55 1.41 111.26 1.39 106.97 C1.35 100.24 1.29 93.52 1.23 86.79 C1.22 85.11 1.2 83.43 1.19 81.75 C1.08 67.43 0.77 53.12 0.34 38.81 C-0.04 25.87 -0.12 12.95 0 0 Z " fill="#57A3E1" transform="translate(819,737)"/>
<path d="M0 0 C0.11 8.83 0.05 17.63 -0.34 26.45 C-0.95 40.61 -1.12 54.77 -1.21 68.95 C-1.23 71 -1.24 73.06 -1.25 75.12 C-1.31 83.62 -1.37 92.12 -1.4 100.62 C-1.42 105.89 -1.46 111.17 -1.5 116.44 C-1.52 118.42 -1.52 120.41 -1.53 122.39 C-1.57 146.57 -1.57 146.57 -6 151 C-8.06 151.11 -10.12 151.19 -12.19 151.25 C-30.31 152.47 -44.2 162.23 -56.16 175.38 C-63.91 184.69 -69.18 194.52 -72.96 205.97 C-73.81 208.46 -74.75 210.69 -76 213 C-82.81 206.92 -87.35 199.76 -92 192 C-92.64 190.94 -93.29 189.89 -93.95 188.8 C-98.87 180.29 -101.71 171.5 -104 162 C-104.19 161.25 -104.38 160.49 -104.57 159.72 C-108.21 143.69 -107.43 124.8 -103 109 C-102.77 108.16 -102.54 107.32 -102.3 106.46 C-98.76 93.91 -94.25 82.43 -88 71 C-87.5 70.01 -86.99 69.02 -86.48 68 C-81.14 57.64 -73.93 48.76 -66.04 40.23 C-64.32 38.35 -62.72 36.43 -61.12 34.44 C-46.79 17.61 -25.57 7.67 -5 1 C-2 0 -2 0 0 0 Z " fill="#58A3E1" transform="translate(435,736)"/>
<path d="M0 0 C10.86 8.06 20.1 19.33 22.67 32.96 C24.59 51.45 22.64 67.86 11.25 83.19 C1.95 94.28 -11.41 102.26 -25.94 103.75 C-30.29 103.95 -34.59 103.92 -38.94 103.75 C-39.66 103.73 -40.38 103.71 -41.12 103.7 C-54.08 102.78 -66.08 94.37 -74.8 85.3 C-81.1 77.79 -85.09 69.07 -87.94 59.75 C-88.13 59.14 -88.32 58.53 -88.52 57.91 C-91.57 42.04 -87 26.23 -78.12 13.05 C-59.59 -11.43 -25.53 -17.24 0 0 Z " fill="#B2B2B2" transform="translate(539.9375,449.25)"/>
<path d="M0 0 C17.25 10.79 27.75 26.85 32.75 46.44 C35.18 59.23 35.57 73.61 30.88 85.88 C30.53 86.92 30.19 87.96 29.84 89.03 C23.69 106.83 11.37 118.57 -5.16 126.9 C-16.22 131.97 -30.68 133.19 -42.25 129.19 C-53.32 124.35 -62.43 117.33 -67.12 105.88 C-68.05 101.61 -68.29 97.49 -68.31 93.12 C-68.33 92 -68.34 90.87 -68.36 89.7 C-68.12 86.88 -68.12 86.88 -66.12 84.88 C-63.11 84.7 -60.19 84.64 -57.18 84.68 C-56.4 84.68 -55.61 84.68 -54.8 84.69 C-51.87 84.7 -48.93 84.72 -46 84.75 C-39.44 84.79 -32.88 84.83 -26.12 84.88 C-26.12 70.36 -26.12 55.84 -26.12 40.88 C-46.5 41 -46.5 41 -52.93 41.06 C-54.61 41.06 -56.28 41.07 -57.96 41.07 C-58.84 41.08 -59.71 41.09 -60.61 41.1 C-62.78 41.1 -64.96 41 -67.12 40.88 C-69.12 38.88 -69.12 38.88 -69.39 36.34 C-69.32 23.23 -66.44 15.46 -57.5 5.69 C-42.13 -9.12 -18.08 -9.9 0 0 Z " fill="#59A4E1" transform="translate(850.125,905.125)"/>
<path d="M0 0 C2.51 2.17 4.73 4.39 6.92 6.88 C7.52 7.55 8.12 8.22 8.75 8.92 C15.15 16.72 16.25 24.24 16.22 34.16 C15.92 36.88 15.92 36.88 13.92 38.88 C12.08 39.12 12.08 39.12 9.84 39.11 C8.98 39.11 8.13 39.11 7.25 39.11 C6.8 39.1 6.8 39.1 4.54 39.07 C4.12 39.07 4.12 39.07 2.04 39.07 C-1.04 39.06 -4.12 39.03 -7.21 39 C-14.1 38.96 -20.98 38.92 -28.08 38.88 C-28.08 53.4 -28.08 67.92 -28.08 82.88 C-7.77 82.75 -7.77 82.75 -1.37 82.7 C0.31 82.69 1.98 82.69 3.66 82.68 C4.53 82.67 5.4 82.66 6.29 82.65 C7.12 82.65 7.96 82.65 8.81 82.65 C9.54 82.65 10.26 82.64 11 82.64 C12.92 82.88 12.92 82.88 15.92 84.88 C17.39 93.98 15.58 103.45 10.29 111 C1.85 121.22 -7.75 127.17 -21.08 128.88 C-37.61 130.02 -51.67 125.53 -64.27 114.63 C-78.82 100.8 -86.9 83.46 -87.43 63.34 C-87.65 42.91 -81.05 24.94 -67.55 9.38 C-49.51 -8.87 -22.04 -15.17 0 0 Z " fill="#59A3E0" transform="translate(457.08203125,907.12109375)"/>
<path d="M0 0 C0.43 0.21 0.43 0.21 2.58 1.29 C13.84 7.49 24.95 17.45 29 30 C29.42 33.2 29.24 34.58 27.61 37.39 C27 38.19 26.38 38.99 25.75 39.81 C18.36 49.87 15.65 58.5 15.81 70.94 C15.81 71.89 15.81 72.84 15.81 73.82 C15.85 79.3 16.2 84.58 17 90 C9.29 96.8 3.18 98.06 -6.93 98 C-7.59 98.01 -7.59 98.01 -10.91 98.03 C-13.68 98.05 -16.45 98.05 -19.21 98.02 C-22.73 97.99 -26.24 98.04 -29.75 98.1 C-33.15 98.15 -36.54 98.13 -39.93 98.12 C-41.18 98.15 -42.43 98.17 -43.71 98.2 C-53.28 98.02 -58.42 94.83 -65 88 C-68.77 83.66 -71.63 79.26 -74 74 C-77.08 73.93 -79.61 73.88 -82.56 74.81 C-85 75 -85 75 -87.5 72.88 C-88.32 71.93 -89.15 70.98 -90 70 C-91.65 68.35 -93.3 66.7 -95 65 C-92.03 59.39 -89.06 53.78 -86 48 C-84.02 48 -82.04 48 -80 48 C-79.99 47.67 -79.99 47.67 -79.96 46.02 C-79.18 31.22 -71.85 19.41 -61.38 9.25 C-55.55 4.23 -49.04 1.01 -42 -2 C-41.11 -2.39 -40.22 -2.77 -39.3 -3.17 C-27.26 -6.2 -11.09 -5.67 0 0 Z " fill="#FD922B" transform="translate(555,830)"/>
<path d="M0 0 C1.03 0.25 2.05 0.51 3.11 0.77 C8.59 2.13 14.02 3.62 19.45 5.2 C24.57 6.68 29.7 8.03 34.88 9.29 C35.22 9.37 35.22 9.37 36.96 9.79 C39.78 10.48 42.59 11.16 45.41 11.83 C47.5 12.33 49.6 12.84 51.69 13.35 C52.92 13.64 54.14 13.94 55.4 14.24 C59.94 15.64 62.84 17.34 66.06 20.81 C69.69 28.49 66.12 36.74 63.8 44.46 C62.62 48.47 61.57 52.5 60.56 56.56 C60.48 56.9 60.48 56.9 60.05 58.61 C59.15 62.21 58.4 65.79 57.75 69.44 C56.51 73.88 55.02 75.15 51.69 78.25 C47.86 83.74 45.46 88.79 43.69 95.25 C34.08 95.32 24.48 95.37 14.87 95.41 C10.41 95.42 5.95 95.44 1.49 95.48 C-2.83 95.51 -7.14 95.53 -11.45 95.53 C-13.09 95.54 -14.73 95.55 -16.37 95.57 C-35.82 95.75 -35.82 95.75 -44.25 90.38 C-47.78 86.73 -49.17 84.52 -49.75 79.38 C-49.52 73.24 -47.65 67.47 -45.97 61.6 C-44.68 56.99 -43.51 52.33 -42.31 47.69 C-40.41 40.36 -38.45 33.06 -36.3 25.8 C-35.52 22.99 -34.81 20.19 -34.13 17.36 C-33.92 16.5 -33.72 15.65 -33.5 14.76 C-33.09 13.09 -32.7 11.41 -32.33 9.73 C-31.06 4.59 -29.56 1.7 -25.31 -1.75 C-17.96 -5.43 -7.46 -1.93 0 0 Z " fill="#5EA7E2" transform="translate(727.3125,831.75)"/>
<path d="M0 0 C4.55 -0.05 9.1 -0.09 13.65 -0.11 C15.19 -0.12 16.73 -0.13 18.27 -0.15 C47.47 -0.48 77.82 4.62 102 22 C102.72 22.71 103.44 23.41 104.18 24.14 C108.29 26.85 112.16 26.79 117 27.06 C131.33 28.17 147.02 30.57 159.02 39.16 C162.55 41.34 164.64 41.43 168.75 41.44 C175.55 41.71 180.27 43.42 186 47 C186 47.99 186 48.98 186 50 C186.88 50.27 187.77 50.54 188.68 50.81 C207.1 57.39 218.7 73.58 227.3 90.22 C228.31 92.79 228.06 94.49 227 97 C218.72 101.14 204.78 97.78 196.43 95.26 C181.74 89.88 168.7 79.73 161.62 65.56 C161.36 64.97 161.36 64.97 160 62 C159.34 61.01 158.68 60.02 158 59 C157.63 59.16 157.63 59.16 155.75 60 C150.49 61.4 143.04 62.52 138 60 C138.27 60.42 138.27 60.42 139.61 62.56 C147.2 74.72 151.18 83.17 151.19 97.69 C151.2 98.94 151.21 100.2 151.22 101.49 C151.24 109.48 151.14 116.91 147 124 C140.21 124.72 136.05 119.96 131 116 C130.47 115.62 130.47 115.62 127.81 113.69 C116.2 102.59 107.47 86.48 106.69 70.3 C106.53 63.05 106.74 56.48 108.62 49.44 C109.32 45.81 109.34 44.56 107.4 41.37 C92.68 25.69 72.34 18.81 52 14 C51.28 13.82 50.56 13.64 49.81 13.45 C39.25 10.91 28.63 10.84 17.81 10.88 C17.18 10.88 17.18 10.88 13.96 10.88 C4.94 10.92 -4.01 11.21 -13 12 C-9.8 8.76 -6.58 5.8 -3 3 C-2.34 3 -1.68 3 -1 3 C-0.67 2.01 -0.34 1.02 0 0 Z " fill="#E1B466" transform="translate(682,587)"/>
<path d="M0 0 C0.52 -0.02 0.52 -0.02 3.14 -0.12 C8.81 -0.15 12.24 0.35 16.62 4.11 C19.96 7.43 21.06 9.35 21.1 14.05 C21.11 14.51 21.11 14.51 21.14 16.83 C21.15 17.84 21.15 18.85 21.16 19.89 C21.17 20.42 21.17 20.42 21.2 23.1 C21.31 34.2 21.35 45.3 21.4 56.4 C21.42 61.66 21.46 66.93 21.52 72.2 C21.59 78.55 21.63 84.91 21.64 91.27 C21.65 93.69 21.67 96.11 21.71 98.53 C21.75 101.93 21.76 105.32 21.75 108.71 C21.76 109.21 21.76 109.21 21.82 111.73 C21.74 118.24 20.24 121.52 15.67 126.18 C9.58 131.47 0.68 130.26 -6.94 129.88 C-16.06 129.06 -23.86 123.35 -29.85 116.7 C-34.95 110.22 -37.52 104.27 -37.47 95.98 C-37.47 95.25 -37.48 94.51 -37.49 93.75 C-37.51 91.34 -37.5 88.93 -37.5 86.51 C-37.5 84.82 -37.51 83.13 -37.51 81.43 C-37.52 77.89 -37.52 74.35 -37.51 70.81 C-37.5 66.3 -37.52 61.78 -37.55 57.26 C-37.56 53.77 -37.56 50.28 -37.56 46.78 C-37.56 45.12 -37.56 43.45 -37.58 41.79 C-37.66 29.41 -36.63 19.68 -27.78 10.37 C-19.51 2.27 -11.41 -0.02 0 0 Z " fill="#B2B2B2" transform="translate(337.0625,437.3125)"/>
<path d="M0 0 C6.48 4.89 11.18 11.4 14 19 C14.83 24.94 14.8 30.8 14.73 36.79 C14.73 38.49 14.73 40.2 14.73 41.91 C14.73 45.48 14.71 49.04 14.67 52.61 C14.63 57.15 14.63 61.69 14.64 66.24 C14.65 69.76 14.63 73.29 14.61 76.81 C14.61 78.48 14.6 80.16 14.61 81.83 C14.61 95.2 13.02 104.8 3.51 114.8 C-0.29 118.13 -4.34 120.15 -9 122 C-9.74 122.36 -10.48 122.73 -11.24 123.1 C-15.15 124.38 -18.85 124.37 -22.94 124.38 C-23.72 124.4 -24.51 124.42 -25.32 124.45 C-30.71 124.48 -33.72 123.55 -38 120 C-41.41 116.13 -43.11 113.81 -43.17 108.68 C-43.18 107.77 -43.19 106.86 -43.2 105.92 C-43.21 104.92 -43.22 103.92 -43.22 102.89 C-43.24 101.84 -43.25 100.79 -43.26 99.71 C-43.37 88.71 -43.42 77.72 -43.46 66.72 C-43.48 61.5 -43.52 56.28 -43.58 51.06 C-43.65 44.77 -43.69 38.47 -43.7 32.17 C-43.71 29.77 -43.74 27.37 -43.77 24.97 C-43.82 21.61 -43.82 18.25 -43.81 14.88 C-43.83 13.89 -43.86 12.91 -43.88 11.89 C-43.81 5.47 -42.3 2.14 -37.89 -2.53 C-28.83 -9.55 -8.64 -5.59 0 0 Z " fill="#B2B2B2" transform="translate(939,443)"/>
<path d="M0 0 C0.92 0.01 1.84 0.02 2.79 0.02 C17.62 0.38 28.43 6.4 38.61 16.94 C43.84 23.23 48.11 31.11 49 39.31 C48.69 42.44 48.69 42.44 47.19 45.94 C44.5 52.5 44.78 60.75 46.45 67.55 C46.69 70.44 46.69 70.44 45.22 73.08 C41.77 76.29 38.82 76.11 34.34 76.01 C33.92 76.01 33.92 76.01 31.8 76.01 C29.02 76 26.26 75.96 23.48 75.93 C21.56 75.92 19.64 75.91 17.72 75.9 C12.66 75.89 7.6 75.84 2.55 75.78 C-2.61 75.73 -7.78 75.71 -12.94 75.68 C-23.06 75.63 -33.19 75.54 -43.31 75.44 C-43.94 74.18 -44.57 72.92 -45.2 71.66 C-45.55 70.96 -45.91 70.26 -46.27 69.54 C-52.34 57.33 -51.49 44.33 -47.31 31.44 C-41.23 17.8 -31.03 8.35 -17.3 2.59 C-11.49 0.43 -6.17 -0.07 0 0 Z " fill="#93C39E" transform="translate(627.3125,851.5625)"/>
<path d="M0 0 C3.11 2.92 5.43 5.93 7.75 9.5 C8.45 10.57 9.15 11.63 9.87 12.73 C10.57 13.81 11.27 14.89 12 16 C13.29 17.94 14.58 19.88 15.88 21.81 C16.52 22.79 17.17 23.76 17.84 24.77 C19.45 27.18 21.07 29.58 22.69 31.98 C23.15 32.66 23.6 33.34 24.07 34.04 C24.97 35.36 25.86 36.69 26.76 38.01 C28.54 40.66 29.99 42.96 31 46 C30.02 47.35 29.02 48.68 28 50 C27.35 52.36 27.35 52.36 26.92 54.96 C23.73 71.36 23.73 71.36 18.41 75.07 C14.31 77.26 9.51 79.74 4.85 78.36 C2.54 76.66 0.26 74.95 -2 73.19 C-11.74 66.01 -21.31 62.8 -33.31 62.94 C-34.05 62.94 -34.79 62.95 -35.56 62.95 C-37.37 62.96 -39.19 62.98 -41 63 C-41 58.5 -41 58.5 -38.83 55.56 C-38.36 54.9 -37.88 54.25 -37.39 53.57 C-36.87 52.87 -36.35 52.16 -35.81 51.44 C-34.7 49.9 -33.59 48.37 -32.48 46.83 C-31.91 46.04 -31.33 45.24 -30.74 44.42 C-27.95 40.53 -25.25 36.58 -22.56 32.62 C-22.3 32.24 -22.3 32.24 -20.95 30.26 C-19.3 27.84 -17.65 25.42 -16 23 C-13.63 19.52 -11.25 16.04 -8.88 12.56 C-8.33 11.76 -7.79 10.96 -7.22 10.14 C-6.97 9.77 -6.97 9.77 -5.68 7.88 C-5.23 7.22 -4.79 6.57 -4.33 5.9 C-2.93 3.9 -1.47 1.94 0 0 Z " fill="#AB94CA" transform="translate(663,782)"/>
<path d="M0 0 C16.83 0 33.66 0 51 0 C51.06 7.82 51.12 15.63 51.19 23.69 C51.2 24.92 51.2 24.92 51.27 31.14 C51.28 33.1 51.29 35.06 51.29 37.01 C51.31 38.02 51.32 39.03 51.34 40.07 C51.34 49.12 51.34 49.12 48 53 C44.17 55.55 41.01 55.32 36.57 55.34 C35.74 55.34 34.92 55.35 34.06 55.36 C32.31 55.37 30.56 55.37 28.81 55.37 C26.14 55.37 23.47 55.41 20.8 55.45 C19.1 55.46 17.4 55.46 15.7 55.46 C15.3 55.47 15.3 55.47 13.28 55.5 C9.47 55.47 7.43 55.25 4.08 53.28 C-0.82 47.91 -0.27 42.37 -0.2 35.45 C-0.19 34.55 -0.19 33.65 -0.19 32.72 C-0.18 29.38 -0.15 26.03 -0.12 22.69 C-0.08 15.2 -0.04 7.71 0 0 Z " fill="#B2B2B2" transform="translate(601,939)"/>
<path d="M0 0 C3.82 1.34 6.22 3 9.34 5.5 C11.78 7.42 14.28 9.16 16.88 10.88 C17.7 11.42 18.52 11.97 19.36 12.54 C27.86 17.08 35.64 18.98 45.25 18.88 C46.29 18.87 47.34 18.86 48.41 18.85 C62.88 18.43 73.35 13.35 84.56 4.25 C87.51 1.95 89.79 0.38 93.56 -0.25 C97.37 0.38 99.56 1.88 102.56 4.25 C104.13 7.39 104.08 10.83 103.56 14.25 C98.38 25.25 84.01 31.72 73.38 36.44 C71.82 37.13 70.29 37.88 68.76 38.63 C55.51 44.25 36.48 43 22.97 38.63 C11.39 33.94 -2.84 27.09 -9.76 16.16 C-10.96 12.79 -11.3 9.7 -10.44 6.25 C-7.64 2.26 -4.87 0.35 0 0 Z " fill="#020406" transform="translate(580.4375,570.75)"/>
<path d="M0 0 C1.65 0 3.3 0 5 0 C4.67 3.3 4.34 6.6 4 10 C5.98 10.33 7.96 10.66 10 11 C10.08 9.89 10.16 8.77 10.25 7.62 C11 4 11 4 12.94 2.5 C15 2 15 2 17 3 C17.22 6.86 16.6 9.49 15 13 C16.98 13.33 18.96 13.66 21 14 C21.33 11.36 21.66 8.72 22 6 C25.75 4.88 25.75 4.88 28 6 C27.67 9.3 27.34 12.6 27 16 C28.32 16.33 29.64 16.66 31 17 C32 18 32 18 32.06 21.56 C32.04 22.7 32.02 23.83 32 25 C34.31 25.33 36.62 25.66 39 26 C39.56 27.94 39.56 27.94 40 30 C39.84 30.16 39.84 30.16 39 31 C37.47 30.91 35.95 30.75 34.44 30.56 C33.61 30.46 32.78 30.36 31.93 30.25 C31.3 30.17 30.66 30.09 30 30 C29.67 32.31 29.34 34.62 29 37 C31.31 37.33 33.62 37.66 36 38 C36 39.65 36 41.3 36 43 C33.03 42.67 30.06 42.34 27 42 C26.67 43.98 26.34 45.96 26 48 C28.31 48.33 30.62 48.66 33 49 C32.67 50.65 32.34 52.3 32 54 C29.36 54 26.72 54 24 54 C23.67 54.99 23.34 55.98 23 57 C20.29 58.35 17.99 58.07 15 58 C14.67 59.98 14.34 61.96 14 64 C13.17 64.16 13.17 64.16 9 65 C9.33 62.03 9.66 59.06 10 56 C9.01 55.84 9.01 55.84 4 55 C3.67 57.31 3.34 59.62 3 62 C2.17 62.16 2.17 62.16 -2 63 C-2.12 56.38 -2.12 56.38 -1 53 C-2.98 52.67 -4.96 52.34 -7 52 C-7.33 54.31 -7.66 56.62 -8 59 C-9.66 59.38 -11.32 59.71 -13 60 C-14 59 -14 59 -14.12 56.06 C-14 53 -14 53 -13 51 C-13.64 50.69 -14.28 50.38 -14.94 50.06 C-17 49 -17 49 -18 48 C-18.04 46 -18.04 44 -18 42 C-19.32 41.84 -19.32 41.84 -26 41 C-26.33 39.35 -26.66 37.7 -27 36 C-23 34.4 -19.95 35.71 -16 37 C-15.67 34.69 -15.34 32.38 -15 30 C-17.64 29.67 -20.28 29.34 -23 29 C-23.33 27.68 -23.66 26.36 -24 25 C-22.38 23.88 -22.38 23.88 -20 23 C-16.75 23.88 -16.75 23.88 -14 25 C-13.67 23.02 -13.34 21.04 -13 19 C-14.98 18.67 -16.96 18.34 -19 18 C-19.33 16.68 -19.66 15.36 -20 14 C-17.43 12.38 -16.32 11.96 -13.25 12.38 C-12.51 12.58 -11.76 12.79 -11 13 C-10.85 12.68 -10.85 12.68 -10.06 11.06 C-9 9 -9 9 -8 8 C-6 7.96 -4 7.96 -2 8 C-1.86 6.87 -1.71 5.73 -1.56 4.56 C-1 1 -1 1 0 0 Z " fill="#F1F7FB" transform="translate(729,852)"/>
<path d="M0 0 C15.76 2.14 29.5 14.31 38.81 26.34 C46.42 36.71 50.18 46.13 50.25 58.88 C50.27 59.76 50.29 60.65 50.31 61.56 C50.34 66.82 49.91 70.43 47 75 C46.67 75.33 46.34 75.66 46 76 C34.63 75.75 25.66 67.63 18 60 C17.3 59.32 16.6 58.65 15.88 57.95 C3.55 45.19 -2.33 28.28 -2.38 10.77 C-2.29 6.77 -1.76 3.6 0 0 Z " fill="#E1B262" transform="translate(847,674)"/>
<path d="M0 0 C1.98 0 3.96 0 6 0 C6 3.3 6 6.6 6 10 C7.98 10 9.96 10 12 10 C12 6.7 12 3.4 12 0 C13.98 0 15.96 0 18 0 C18 3.3 18 6.6 18 10 C19.03 10.1 20.06 10.21 21.12 10.31 C26.24 11.22 30.7 12.85 34 17 C34.91 21.86 34.67 25.88 32.12 30.12 C30 32 30 32 28 32 C28 32.66 28 33.32 28 34 C28.37 34.03 28.37 34.03 30.25 34.19 C34.04 35.31 35.07 36.56 37 40 C37.85 44.61 37.49 48.68 35.38 52.88 C32.69 56.4 31.2 57.65 27 59 C23.95 59.22 21.07 59.14 18 59 C18 61.97 18 64.94 18 68 C16.02 68 14.04 68 12 68 C12 65.03 12 62.06 12 59 C10.02 59 8.04 59 6 59 C6 61.97 6 64.94 6 68 C3.69 68 1.38 68 -1 68 C-1 65.03 -1 62.06 -1 59 C-4.96 59 -8.92 59 -13 59 C-13 56.03 -13 53.06 -13 50 C-11.85 49.84 -11.85 49.84 -6 49 C-6 38.77 -6 28.54 -6 18 C-8.64 17.67 -11.28 17.34 -14 17 C-14 14.69 -14 12.38 -14 10 C-9.38 10 -4.76 10 0 10 C0 6.7 0 3.4 0 0 Z " fill="#FDF7F0" transform="translate(520,846)"/>
<path d="M0 0 C0.33 0 0.66 0 1 0 C1 24.09 1 48.18 1 73 C-2.3 71.02 -5.6 69.04 -9 67 C-17.15 63.45 -23.39 61.83 -32.31 61.94 C-33.05 61.94 -33.79 61.95 -34.56 61.95 C-36.37 61.96 -38.19 61.98 -40 62 C-40 57.5 -40 57.5 -37.83 54.56 C-37.36 53.9 -36.88 53.25 -36.39 52.57 C-35.87 51.87 -35.35 51.16 -34.81 50.44 C-33.7 48.9 -32.59 47.37 -31.48 45.83 C-30.91 45.04 -30.33 44.24 -29.74 43.42 C-26.95 39.53 -24.25 35.58 -21.56 31.62 C-21.3 31.24 -21.3 31.24 -19.95 29.27 C-18.86 27.67 -17.78 26.07 -16.69 24.48 C-13.74 20.15 -10.77 15.82 -7.81 11.5 C-6.74 9.93 -5.66 8.35 -4.58 6.78 C-4.13 6.12 -3.68 5.46 -3.21 4.78 C-2.13 3.2 -1.07 1.6 0 0 Z " fill="#CCC0DF" transform="translate(662,783)"/>
<path d="M0 0 C2.64 0 5.28 0 8 0 C8 2.31 8 4.62 8 7 C8.7 6.92 9.4 6.84 10.12 6.75 C13.99 7.09 15.95 8.68 19 11 C19.6 11.41 20.2 11.83 20.81 12.25 C22.82 15.21 22.71 18.47 23 22 C19.04 22 15.08 22 11 22 C10.34 20.35 9.68 18.7 9 17 C8 16 8 16 5.06 15.81 C2 16 2 16 0 18 C-0.12 20.62 -0.12 20.62 0 23 C0.95 23.41 1.9 23.83 2.88 24.25 C3.51 24.53 4.14 24.8 4.8 25.09 C6.35 25.73 7.93 26.34 9.52 26.91 C16.15 29.36 20.01 32.01 24 38 C24.76 42.66 24.43 46.17 22.25 50.38 C18.23 55.07 14.29 57.48 8.02 58.24 C5.84 58.38 3.68 58.42 1.5 58.44 C0.77 58.47 0.03 58.5 -0.72 58.54 C-4.79 58.58 -7.25 58.21 -10.45 55.59 C-14.08 51.91 -14.95 50.46 -15.12 45.25 C-15.1 44.71 -15.1 44.71 -15 42 C-11.7 42 -8.4 42 -5 42 C-4.55 42.97 -4.09 43.94 -3.62 44.94 C-2 48 -2 48 0 49 C3.6 49.27 6.16 49.41 9.44 47.81 C11 46 11 46 11.38 43.44 C11 41 11 41 9 39 C5.69 37.92 2.38 36.95 -0.97 36.03 C-6.19 34.5 -10.39 32.68 -13.31 27.81 C-14.65 22.33 -14.83 17.8 -12.44 12.62 C-9.38 9.34 -7.24 8.39 -3 7 C-2.01 7 -1.02 7 0 7 C0 4.69 0 2.38 0 0 Z " fill="#060906" transform="translate(623,869)"/>
<path d="M0 0 C8.36 7.57 8.36 7.57 8.83 12.55 C8.93 17.93 8.81 21.82 5.62 26.38 C0.76 31.03 -3.11 33.4 -9.81 33.75 C-15.09 33.61 -18.16 31.68 -21.82 27.88 C-26.26 22.8 -26.79 18.71 -26.71 12.17 C-26.19 7.83 -24.52 5.32 -21.38 2.38 C-14.95 -2.63 -7.45 -3.59 0 0 Z " fill="#060505" transform="translate(602.375,182.625)"/>
<path d="M0 0 C4.1 2.83 7.57 6.45 9.81 10.94 C10.64 17.28 10.05 21.99 6.31 27.25 C2.29 31.78 -2.04 33.8 -8 34.19 C-13.99 34.06 -17.78 31.63 -22.06 27.56 C-25.84 23 -26.14 18.87 -25.8 13.07 C-24.85 8.22 -22.91 5.15 -19.19 1.94 C-13.01 -1.79 -6.77 -2.26 0 0 Z " fill="#060505" transform="translate(662.1875,182.0625)"/>
<path d="M0 0 C5.18 0.44 10.2 2.08 15.19 3.5 C15.99 3.73 16.8 3.95 17.63 4.18 C20.78 5.07 23.9 5.97 27 7 C27.22 11.8 26.42 15.98 25.12 20.56 C25.04 20.89 25.04 20.89 24.6 22.52 C21.99 32.01 21.99 32.01 20 34 C14.42 33.5 9.11 32.44 3.69 31.06 C2.99 30.89 2.28 30.72 1.56 30.55 C-1.76 29.72 -4.12 28.92 -7 27 C-6.37 21.26 -5.39 15.74 -4.06 10.12 C-3.89 9.37 -3.72 8.61 -3.55 7.83 C-2.24 2.24 -2.24 2.24 0 0 Z " fill="#5DA7E2" transform="translate(726,868)"/>
<path d="M0 0 C3.59 1.16 7.08 2.4 10.52 3.95 C11.32 4.3 12.11 4.65 12.93 5.02 C13.73 5.38 14.54 5.75 15.38 6.12 C16.21 6.5 17.04 6.87 17.89 7.25 C19.93 8.17 21.97 9.08 24 10 C24.13 22.23 24.13 22.23 21 26 C18.67 27.4 16.53 28.55 14.06 29.62 C13.44 29.9 12.82 30.17 12.18 30.45 C9.45 31.52 7.61 32.18 4.75 31.34 C4.17 30.9 3.59 30.45 3 30 C2.48 29.61 1.95 29.21 1.41 28.8 C-0.66 26.16 -0.34 24.12 -0.29 20.8 C-0.28 19.59 -0.27 18.38 -0.26 17.14 C-0.24 15.88 -0.21 14.61 -0.19 13.31 C-0.17 12.04 -0.16 10.76 -0.15 9.45 C-0.11 6.3 -0.06 3.15 0 0 Z " fill="#825DB7" transform="translate(663,829)"/>
<path d="M0 0 C1.62 1.47 1.62 1.47 3 3.5 C3.5 4.23 4 4.96 4.51 5.71 C5 6.47 5.49 7.22 6 8 C6.49 8.69 6.98 9.39 7.49 10.1 C10.24 14.12 11.84 16.96 11 22 C8.43 24.57 7.41 24.26 3.84 24.27 C3.33 24.27 3.33 24.27 0.75 24.27 C-0.33 24.27 -1.4 24.26 -2.5 24.25 C-3.04 24.25 -3.04 24.25 -5.75 24.27 C-6.77 24.27 -7.79 24.27 -8.84 24.27 C-9.78 24.26 -10.72 24.26 -11.69 24.26 C-14 24 -14 24 -16 22 C-16.7 16.79 -14.98 13.54 -12.19 9.31 C-11.83 8.74 -11.47 8.18 -11.11 7.59 C-5.67 -0.92 -5.67 -0.92 0 0 Z " fill="#070606" transform="translate(626,216)"/>
<path d="M0 0 C0 8.91 0 17.82 0 27 C-1.65 26.01 -1.65 26.01 -10 21 C-18.15 17.45 -24.39 15.83 -33.31 15.94 C-34.05 15.94 -34.79 15.95 -35.56 15.95 C-37.37 15.96 -39.19 15.98 -41 16 C-41.33 15.01 -41.66 14.02 -42 13 C-41.29 12.78 -40.58 12.57 -39.85 12.34 C-15.07 4.78 -15.07 4.78 -3.46 0.81 C-1 0 -1 0 0 0 Z " fill="#B09ECF" transform="translate(663,829)"/>
<path d="M0 0 C13.76 1.05 26.41 3.52 37 13 C36.88 14.88 36.88 14.88 36 17 C30.7 19.86 23.87 19.73 18 19 C13.28 16.88 10.16 13.27 6.75 9.5 C6.21 8.92 5.67 8.34 5.11 7.74 C2.78 5.19 1.1 3.31 0 0 Z " fill="#5CA3DA" transform="translate(804,629)"/>
<path d="M0 0 C0.33 0 0.66 0 1 0 C1.05 1.12 1.1 2.25 1.15 3.4 C2.07 22.55 2.07 22.55 6 30 C2.34 31.01 -1.2 31.82 -5 32 C-7.88 29.94 -7.88 29.94 -10 27 C-11.65 25.35 -13.3 23.7 -15 22 C-12.03 16.39 -9.06 10.78 -6 5 C-4.02 5 -2.04 5 0 5 C0 3.35 0 1.7 0 0 Z " fill="#E1C07D" transform="translate(475,873)"/>
<path d="M0 0 C1.14 -0.03 2.28 -0.05 3.45 -0.08 C7.08 0.28 8.94 0.94 11.75 3.25 C12.34 5.19 12.34 5.19 12.25 7.25 C12.24 7.93 12.23 8.61 12.22 9.31 C11.58 11.94 11.04 12.76 8.75 14.25 C6.12 14.49 3.75 14.58 1.12 14.5 C0.78 14.5 0.78 14.5 -0.98 14.48 C-6.1 14.4 -6.1 14.4 -7.25 13.25 C-7.35 11.25 -7.38 9.25 -7.38 7.25 C-7.38 6.16 -7.38 5.06 -7.38 3.94 C-7.14 -1.05 -4.41 0.06 0 0 Z " fill="#FD942D" transform="translate(533.25,881.75)"/>
<path d="M0 0 C3.18 0.05 5.33 0.28 8.38 1.31 C10.25 3.25 10.25 3.25 10.81 6.75 C10.25 10.25 10.25 10.25 8.61 11.96 C5.57 13.62 3.44 13.55 0 13.44 C-0.54 13.42 -0.54 13.42 -3.27 13.36 C-4.09 13.32 -4.91 13.29 -5.75 13.25 C-5.78 11.27 -5.8 9.29 -5.81 7.31 C-5.82 6.21 -5.84 5.11 -5.85 3.97 C-5.69 -0.52 -4.06 0.07 0 0 Z " fill="#FD962F" transform="translate(531.75,862.75)"/>
<path d="M0 0 C-0.12 0.59 -0.24 1.19 -0.37 1.8 C-1.66 8.19 -2.85 14.59 -4 21 C-4.66 21 -5.32 21 -6 21 C-6.56 19.8 -7.11 18.61 -7.69 17.38 C-9.67 13.38 -12.02 10.31 -15 7 C-13.55 4.1 -11.55 3.69 -8.62 2.38 C-7.65 1.93 -6.67 1.48 -5.66 1.02 C-3 0 -3 0 0 0 Z " fill="#D8CFE8" transform="translate(684,855)"/>
<path d="M0 0 C4.56 0.56 4.56 0.56 6 2 C6.1 4.51 6.14 6.99 6.12 9.5 C6.13 10.2 6.13 10.91 6.14 11.63 C6.13 16.87 6.13 16.87 5 18 C2 18.12 2 18.12 -1 18 C-2.98 16.02 -2.19 12.27 -2.19 9.56 C-2.2 8.87 -2.21 8.17 -2.22 7.46 C-2.23 5.64 -2.12 3.82 -2 2 C-1.34 1.34 -0.68 0.68 0 0 Z " fill="#F8F8F8" transform="translate(625,959)"/>
</svg>
